<?xml version="1.0" standalone="no"?>
<!DOCTYPE svg PUBLIC "-//W3C//DTD SVG 20010904//EN"
 "http://www.w3.org/TR/2001/REC-SVG-20010904/DTD/svg10.dtd">
<svg version="1.0" xmlns="http://www.w3.org/2000/svg"
 width="133.000000pt" height="133.000000pt" viewBox="0 0 133.000000 133.000000"
 preserveAspectRatio="xMidYMid meet">
<metadata>
Created by potrace 1.14, written by Peter Selinger 2001-2017
</metadata>
<g transform="translate(0.000000,133.000000) scale(0.100000,-0.100000)"
fill="#000000" stroke="none">
<path d="M515 1210 c-77 -55 -148 -105 -158 -112 -11 -7 -69 -49 -131 -93 -61
-44 -130 -93 -154 -109 l-42 -29 0 -433 0 -434 250 0 250 0 1 33 c0 17 0 66 0
107 0 156 4 141 -54 186 -132 102 -154 297 -48 431 38 49 123 104 138 90 4 -5
8 -68 9 -140 1 -73 2 -135 3 -140 0 -4 21 -17 45 -29 l44 -21 36 22 c20 13 37
30 37 39 1 9 2 73 3 142 1 146 5 150 82 97 117 -81 165 -247 107 -377 -21 -46
-79 -112 -122 -140 -23 -16 -24 -20 -25 -155 l0 -140 252 -3 252 -2 0 432 0
433 -310 220 c-171 121 -313 221 -318 223 -4 1 -70 -43 -147 -98z"/>
</g>
</svg>
